<svg id="visual" viewBox="0 0 960 540" width="960" height="540" xmlns="http://www.w3.org/2000/svg" xmlns:xlink="http://www.w3.org/1999/xlink" version="1.1"><rect x="0" y="0" width="960" height="540" fill="#f9fafb"></rect><defs><linearGradient id="grad1_0" x1="43.8%" y1="100%" x2="100%" y2="0%"><stop offset="14.444444444444446%" stop-color="#009aab" stop-opacity="1"></stop><stop offset="85.55555555555554%" stop-color="#009aab" stop-opacity="1"></stop></linearGradient></defs><defs><linearGradient id="grad1_1" x1="43.8%" y1="100%" x2="100%" y2="0%"><stop offset="14.444444444444446%" stop-color="#009aab" stop-opacity="1"></stop><stop offset="85.55555555555554%" stop-color="#59acc0" stop-opacity="1"></stop></linearGradient></defs><defs><linearGradient id="grad1_2" x1="43.8%" y1="100%" x2="100%" y2="0%"><stop offset="14.444444444444446%" stop-color="#88bed2" stop-opacity="1"></stop><stop offset="85.55555555555554%" stop-color="#59acc0" stop-opacity="1"></stop></linearGradient></defs><defs><linearGradient id="grad1_3" x1="43.8%" y1="100%" x2="100%" y2="0%"><stop offset="14.444444444444446%" stop-color="#88bed2" stop-opacity="1"></stop><stop offset="85.55555555555554%" stop-color="#b1d1e2" stop-opacity="1"></stop></linearGradient></defs><defs><linearGradient id="grad1_4" x1="43.8%" y1="100%" x2="100%" y2="0%"><stop offset="14.444444444444446%" stop-color="#d7e5ef" stop-opacity="1"></stop><stop offset="85.55555555555554%" stop-color="#b1d1e2" stop-opacity="1"></stop></linearGradient></defs><defs><linearGradient id="grad1_5" x1="43.8%" y1="100%" x2="100%" y2="0%"><stop offset="14.444444444444446%" stop-color="#d7e5ef" stop-opacity="1"></stop><stop offset="85.55555555555554%" stop-color="#f9fafb" stop-opacity="1"></stop></linearGradient></defs><defs><linearGradient id="grad2_0" x1="0%" y1="100%" x2="56.3%" y2="0%"><stop offset="14.444444444444446%" stop-color="#009aab" stop-opacity="1"></stop><stop offset="85.55555555555554%" stop-color="#009aab" stop-opacity="1"></stop></linearGradient></defs><defs><linearGradient id="grad2_1" x1="0%" y1="100%" x2="56.3%" y2="0%"><stop offset="14.444444444444446%" stop-color="#59acc0" stop-opacity="1"></stop><stop offset="85.55555555555554%" stop-color="#009aab" stop-opacity="1"></stop></linearGradient></defs><defs><linearGradient id="grad2_2" x1="0%" y1="100%" x2="56.3%" y2="0%"><stop offset="14.444444444444446%" stop-color="#59acc0" stop-opacity="1"></stop><stop offset="85.55555555555554%" stop-color="#88bed2" stop-opacity="1"></stop></linearGradient></defs><defs><linearGradient id="grad2_3" x1="0%" y1="100%" x2="56.3%" y2="0%"><stop offset="14.444444444444446%" stop-color="#b1d1e2" stop-opacity="1"></stop><stop offset="85.55555555555554%" stop-color="#88bed2" stop-opacity="1"></stop></linearGradient></defs><defs><linearGradient id="grad2_4" x1="0%" y1="100%" x2="56.3%" y2="0%"><stop offset="14.444444444444446%" stop-color="#b1d1e2" stop-opacity="1"></stop><stop offset="85.55555555555554%" stop-color="#d7e5ef" stop-opacity="1"></stop></linearGradient></defs><defs><linearGradient id="grad2_5" x1="0%" y1="100%" x2="56.3%" y2="0%"><stop offset="14.444444444444446%" stop-color="#f9fafb" stop-opacity="1"></stop><stop offset="85.55555555555554%" stop-color="#d7e5ef" stop-opacity="1"></stop></linearGradient></defs><g transform="translate(960, 540)"><path d="M-486 0C-446.9 -50.4 -407.9 -100.7 -389.9 -161.5C-371.9 -222.3 -375 -293.4 -343.7 -343.7C-312.4 -393.9 -246.7 -423.2 -183.7 -443.5C-120.7 -463.7 -60.3 -474.9 0 -486L0 0Z" fill="#e8eff5"></path><path d="M-405 0C-372.4 -42 -339.9 -83.9 -324.9 -134.6C-309.9 -185.2 -312.5 -244.5 -286.4 -286.4C-260.3 -328.2 -205.6 -352.7 -153.1 -369.6C-100.6 -386.4 -50.3 -395.7 0 -405L0 0Z" fill="#c5dbe9"></path><path d="M-324 0C-298 -33.6 -271.9 -67.2 -259.9 -107.7C-247.9 -148.2 -250 -195.6 -229.1 -229.1C-208.2 -262.6 -164.5 -282.1 -122.5 -295.6C-80.5 -309.1 -40.2 -316.6 0 -324L0 0Z" fill="#9dc8da"></path><path d="M-243 0C-223.5 -25.2 -203.9 -50.4 -194.9 -80.7C-185.9 -111.1 -187.5 -146.7 -171.8 -171.8C-156.2 -196.9 -123.3 -211.6 -91.8 -221.7C-60.3 -231.9 -30.2 -237.4 0 -243L0 0Z" fill="#72b5c9"></path><path d="M-162 0C-149 -16.8 -136 -33.6 -130 -53.8C-124 -74.1 -125 -97.8 -114.6 -114.6C-104.1 -131.3 -82.2 -141.1 -61.2 -147.8C-40.2 -154.6 -20.1 -158.3 0 -162L0 0Z" fill="#3ba3b6"></path><path d="M-81 0C-74.5 -8.4 -68 -16.8 -65 -26.9C-62 -37 -62.5 -48.9 -57.3 -57.3C-52.1 -65.6 -41.1 -70.5 -30.6 -73.9C-20.1 -77.3 -10.1 -79.1 0 -81L0 0Z" fill="#009aab"></path></g><g transform="translate(0, 0)"><path d="M486 0C443.6 47.2 401.1 94.4 385.3 159.6C369.4 224.8 380 307.9 343.7 343.7C307.3 379.4 223.9 367.6 158.8 383.4C93.7 399.2 46.9 442.6 0 486L0 0Z" fill="#e8eff5"></path><path d="M405 0C369.6 39.3 334.3 78.7 321 133C307.8 187.3 316.7 256.6 286.4 286.4C256.1 316.1 186.6 306.3 132.3 319.5C78.1 332.7 39 368.8 0 405L0 0Z" fill="#c5dbe9"></path><path d="M324 0C295.7 31.5 267.4 62.9 256.8 106.4C246.2 149.8 253.3 205.3 229.1 229.1C204.9 252.9 149.3 245.1 105.9 255.6C62.5 266.1 31.2 295.1 0 324L0 0Z" fill="#9dc8da"></path><path d="M243 0C221.8 23.6 200.6 47.2 192.6 79.8C184.7 112.4 190 154 171.8 171.8C153.6 189.7 112 183.8 79.4 191.7C46.9 199.6 23.4 221.3 0 243L0 0Z" fill="#72b5c9"></path><path d="M162 0C147.9 15.7 133.7 31.5 128.4 53.2C123.1 74.9 126.7 102.6 114.6 114.6C102.4 126.5 74.6 122.5 52.9 127.8C31.2 133.1 15.6 147.5 0 162L0 0Z" fill="#3ba3b6"></path><path d="M81 0C73.9 7.9 66.9 15.7 64.2 26.6C61.6 37.5 63.3 51.3 57.3 57.3C51.2 63.2 37.3 61.3 26.5 63.9C15.6 66.5 7.8 73.8 0 81L0 0Z" fill="#009aab"></path></g></svg>