<svg id="visual" viewBox="0 0 960 540" width="960" height="540" xmlns="http://www.w3.org/2000/svg" xmlns:xlink="http://www.w3.org/1999/xlink" version="1.1"><path d="M844 540L844 527.2C844 514.3 844 488.7 850.3 463C856.7 437.3 869.3 411.7 875.7 386C882 360.3 882 334.7 883.7 308.8C885.3 283 888.7 257 895.2 231.2C901.7 205.3 911.3 179.7 909.7 154C908 128.3 895 102.7 896.5 77C898 51.3 914 25.7 922 12.8L930 0L960 0L960 12.8C960 25.7 960 51.3 960 77C960 102.7 960 128.3 960 154C960 179.7 960 205.3 960 231.2C960 257 960 283 960 308.8C960 334.7 960 360.3 960 386C960 411.7 960 437.3 960 463C960 488.7 960 514.3 960 527.2L960 540Z" fill="#005070"></path><path d="M508 540L525.5 527.2C543 514.3 578 488.7 606.8 463C635.7 437.3 658.3 411.7 664.8 386C671.3 360.3 661.7 334.7 674.3 308.8C687 283 722 257 723.5 231.2C725 205.3 693 179.7 693 154C693 128.3 725 102.7 725 77C725 51.3 693 25.7 677 12.8L661 0L931 0L923 12.8C915 25.7 899 51.3 897.5 77C896 102.7 909 128.3 910.7 154C912.3 179.7 902.7 205.3 896.2 231.2C889.7 257 886.3 283 884.7 308.8C883 334.7 883 360.3 876.7 386C870.3 411.7 857.7 437.3 851.3 463C845 488.7 845 514.3 845 527.2L845 540Z" fill="#005877"></path><path d="M469 540L470.7 527.2C472.3 514.3 475.7 488.7 504.5 463C533.3 437.3 587.7 411.7 605.3 386C623 360.3 604 334.7 600.8 308.8C597.7 283 610.3 257 613.5 231.2C616.7 205.3 610.3 179.7 608.7 154C607 128.3 610 102.7 611.5 77C613 51.3 613 25.7 613 12.8L613 0L662 0L678 12.8C694 25.7 726 51.3 726 77C726 102.7 694 128.3 694 154C694 179.7 726 205.3 724.5 231.2C723 257 688 283 675.3 308.8C662.7 334.7 672.3 360.3 665.8 386C659.3 411.7 636.7 437.3 607.8 463C579 488.7 544 514.3 526.5 527.2L509 540Z" fill="#00607f"></path><path d="M421 540L419.5 527.2C418 514.3 415 488.7 443.8 463C472.7 437.3 533.3 411.7 555.7 386C578 360.3 562 334.7 549.2 308.8C536.3 283 526.7 257 520.3 231.2C514 205.3 511 179.7 515.8 154C520.7 128.3 533.3 102.7 542.8 77C552.3 51.3 558.7 25.7 561.8 12.8L565 0L614 0L614 12.8C614 25.7 614 51.3 612.5 77C611 102.7 608 128.3 609.7 154C611.3 179.7 617.7 205.3 614.5 231.2C611.3 257 598.7 283 601.8 308.8C605 334.7 624 360.3 606.3 386C588.7 411.7 534.3 437.3 505.5 463C476.7 488.7 473.3 514.3 471.7 527.2L470 540Z" fill="#006886"></path><path d="M402 540L397.2 527.2C392.3 514.3 382.7 488.7 401.8 463C421 437.3 469 411.7 486.7 386C504.3 360.3 491.7 334.7 479 308.8C466.3 283 453.7 257 450.5 231.2C447.3 205.3 453.7 179.7 455.2 154C456.7 128.3 453.3 102.7 466.2 77C479 51.3 508 25.7 522.5 12.8L537 0L566 0L562.8 12.8C559.7 25.7 553.3 51.3 543.8 77C534.3 102.7 521.7 128.3 516.8 154C512 179.7 515 205.3 521.3 231.2C527.7 257 537.3 283 550.2 308.8C563 334.7 579 360.3 556.7 386C534.3 411.7 473.7 437.3 444.8 463C416 488.7 419 514.3 420.5 527.2L422 540Z" fill="#00708d"></path><path d="M364 540L357.5 527.2C351 514.3 338 488.7 354 463C370 437.3 415 411.7 434.3 386C453.7 360.3 447.3 334.7 436.2 308.8C425 283 409 257 409 231.2C409 205.3 425 179.7 431.3 154C437.7 128.3 434.3 102.7 442.3 77C450.3 51.3 469.7 25.7 479.3 12.8L489 0L538 0L523.5 12.8C509 25.7 480 51.3 467.2 77C454.3 102.7 457.7 128.3 456.2 154C454.7 179.7 448.3 205.3 451.5 231.2C454.7 257 467.3 283 480 308.8C492.7 334.7 505.3 360.3 487.7 386C470 411.7 422 437.3 402.8 463C383.7 488.7 393.3 514.3 398.2 527.2L403 540Z" fill="#007893"></path><path d="M201 540L202.5 527.2C204 514.3 207 488.7 226.2 463C245.3 437.3 280.7 411.7 279.2 386C277.7 360.3 239.3 334.7 226.5 308.8C213.7 283 226.3 257 223 231.2C219.7 205.3 200.3 179.7 198.7 154C197 128.3 213 102.7 240.3 77C267.7 51.3 306.3 25.7 325.7 12.8L345 0L490 0L480.3 12.8C470.7 25.7 451.3 51.3 443.3 77C435.3 102.7 438.7 128.3 432.3 154C426 179.7 410 205.3 410 231.2C410 257 426 283 437.2 308.8C448.3 334.7 454.7 360.3 435.3 386C416 411.7 371 437.3 355 463C339 488.7 352 514.3 358.5 527.2L365 540Z" fill="#00819a"></path><path d="M162 540L157.2 527.2C152.3 514.3 142.7 488.7 155.5 463C168.3 437.3 203.7 411.7 203.7 386C203.7 360.3 168.3 334.7 163.5 308.8C158.7 283 184.3 257 182.8 231.2C181.3 205.3 152.7 179.7 144.7 154C136.7 128.3 149.3 102.7 176.5 77C203.7 51.3 245.3 25.7 266.2 12.8L287 0L346 0L326.7 12.8C307.3 25.7 268.7 51.3 241.3 77C214 102.7 198 128.3 199.7 154C201.3 179.7 220.7 205.3 224 231.2C227.3 257 214.7 283 227.5 308.8C240.3 334.7 278.7 360.3 280.2 386C281.7 411.7 246.3 437.3 227.2 463C208 488.7 205 514.3 203.5 527.2L202 540Z" fill="#0089a0"></path><path d="M114 540L107.7 527.2C101.3 514.3 88.7 488.7 104.7 463C120.7 437.3 165.3 411.7 171.7 386C178 360.3 146 334.7 133.2 308.8C120.3 283 126.7 257 123.5 231.2C120.3 205.3 107.7 179.7 106.2 154C104.7 128.3 114.3 102.7 133.5 77C152.7 51.3 181.3 25.7 195.7 12.8L210 0L288 0L267.2 12.8C246.3 25.7 204.7 51.3 177.5 77C150.3 102.7 137.7 128.3 145.7 154C153.7 179.7 182.3 205.3 183.8 231.2C185.3 257 159.7 283 164.5 308.8C169.3 334.7 204.7 360.3 204.7 386C204.7 411.7 169.3 437.3 156.5 463C143.7 488.7 153.3 514.3 158.2 527.2L163 540Z" fill="#0091a6"></path><path d="M0 540L0 527.2C0 514.3 0 488.7 0 463C0 437.3 0 411.7 0 386C0 360.3 0 334.7 0 308.8C0 283 0 257 0 231.2C0 205.3 0 179.7 0 154C0 128.3 0 102.7 0 77C0 51.3 0 25.7 0 12.8L0 0L211 0L196.7 12.8C182.3 25.7 153.7 51.3 134.5 77C115.3 102.7 105.7 128.3 107.2 154C108.7 179.7 121.3 205.3 124.5 231.2C127.7 257 121.3 283 134.2 308.8C147 334.7 179 360.3 172.7 386C166.3 411.7 121.7 437.3 105.7 463C89.7 488.7 102.3 514.3 108.7 527.2L115 540Z" fill="#009aab"></path></svg>